<?xml version="1.0" standalone="no"?>
<!DOCTYPE svg PUBLIC "-//W3C//DTD SVG 20010904//EN"
 "http://www.w3.org/TR/2001/REC-SVG-20010904/DTD/svg10.dtd">
<svg version="1.0" xmlns="http://www.w3.org/2000/svg"
 width="394.000000pt" height="394.000000pt" viewBox="0 0 394.000000 394.000000"
 preserveAspectRatio="xMidYMid meet">
<metadata>
Created by potrace 1.11, written by Peter Selinger 2001-2013
</metadata>
<g transform="translate(0.000000,394.000000) scale(0.100000,-0.100000)"
fill="#000000" stroke="none">
<path d="M1720 3924 c-262 -34 -533 -127 -753 -258 -43 -25 -82 -46 -87 -46
-5 0 -10 -3 -12 -7 -2 -5 -39 -35 -83 -68 -44 -33 -89 -69 -101 -80 -12 -11
-43 -41 -70 -66 -123 -116 -249 -272 -331 -409 -50 -83 -153 -297 -153 -317 0
-6 -9 -30 -19 -54 -22 -49 -77 -260 -86 -329 -3 -25 -9 -70 -13 -100 -11 -87
-7 -396 7 -495 27 -188 88 -391 173 -575 34 -73 153 -280 167 -290 4 -3 20
-24 37 -47 61 -84 145 -174 288 -308 12 -11 48 -40 81 -65 33 -25 66 -50 73
-57 24 -23 204 -125 291 -165 286 -133 527 -184 866 -183 303 1 566 63 845
198 130 63 181 94 295 178 262 193 468 438 596 709 22 47 44 93 50 103 40 74
119 346 134 467 4 29 9 62 12 74 9 37 11 369 3 436 -16 134 -22 167 -46 265
-40 166 -138 409 -217 540 -70 117 -121 187 -216 295 -138 156 -277 274 -446
379 -68 42 -287 151 -303 151 -5 0 -36 11 -69 24 -74 31 -278 82 -358 91 -33
4 -64 10 -69 13 -20 12 -385 9 -486 -4z"/>
</g>
</svg>
